<svg width="25" height="30" viewBox="0 0 25 30" fill="none" xmlns="http://www.w3.org/2000/svg">
<path fill-rule="evenodd" clip-rule="evenodd" d="M14.1799 13.4689C14.287 13.5211 14.369 13.6136 14.4078 13.7262C14.4467 13.8388 14.4392 13.9623 14.3871 14.0694C14.3349 14.1764 14.2424 14.2584 14.1298 14.2973C14.0172 14.3361 13.8938 14.3287 13.7867 14.2766C13.3309 14.0547 12.6037 13.895 12.0628 14.0031L11.7411 14.1045L11.7413 14.105C11.4504 14.2283 11.1832 14.4811 11.4054 14.7567C11.4755 14.8436 11.5886 14.9249 11.7448 15.0004L11.7448 15.0002C12.361 15.2654 12.6568 15.0005 13.4731 15.3476C14.0119 15.5767 14.4042 16.0168 14.4388 16.5941C14.44 16.613 14.4399 16.6318 14.4386 16.6502H14.4388C14.3817 17.4676 13.6689 17.9243 12.9197 18.0583C12.8489 18.071 12.8703 18.1757 12.8703 18.2881C12.8703 18.4073 12.8229 18.5217 12.7387 18.606C12.6544 18.6903 12.54 18.7376 12.4208 18.7376C12.3016 18.7376 12.1873 18.6903 12.103 18.606C12.0187 18.5217 11.9713 18.4073 11.9713 18.2881C11.9713 18.1814 11.9924 18.0774 11.9188 18.0682C11.4834 18.0138 11.059 17.8921 10.6609 17.7075C10.5544 17.6562 10.4725 17.5651 10.4327 17.4538C10.393 17.3426 10.3986 17.2201 10.4485 17.113C10.4983 17.0059 10.5884 16.9227 10.6991 16.8815C10.8098 16.8403 10.9323 16.8443 11.0401 16.8928C11.6019 17.1542 12.5039 17.3492 13.1149 17.0714C13.392 16.9454 13.6862 16.7002 13.4528 16.4093C13.2332 16.1355 12.764 16.0359 12.4236 16.0341C12.0644 16.0321 11.7115 15.9637 11.3901 15.8253L11.3904 15.8247C10.0896 15.2407 10.1193 13.8203 11.3936 13.2797L11.3938 13.2801C12.0164 13.0059 11.9713 13.2628 11.9713 12.8846C11.9713 12.7654 12.0186 12.6511 12.1029 12.5668C12.1872 12.4825 12.3015 12.4352 12.4208 12.4352C12.54 12.4352 12.6543 12.4825 12.7386 12.5668C12.8229 12.6511 12.8702 12.7654 12.8702 12.8846C12.8702 12.9922 12.8491 13.0971 12.9229 13.106C13.3731 13.161 13.7888 13.2785 14.1799 13.4689ZM20.0291 18.2936L22.671 25.3936C22.7102 25.4988 22.8309 25.554 22.936 25.515L24.7076 24.8558C24.8127 24.8167 24.868 24.6958 24.8289 24.5908L22.1871 17.4909C22.148 17.3857 22.0271 17.3305 21.9221 17.3695L20.1506 18.0287C20.0453 18.0679 19.9901 18.1887 20.0291 18.2936ZM2.17047 25.3936L4.81241 18.2936C4.85151 18.1886 4.7962 18.0679 4.69102 18.0287L2.91935 17.3695C2.81438 17.3305 2.69354 17.3857 2.65444 17.4909L0.0124965 24.5911C-0.0264722 24.696 0.0289118 24.8167 0.133955 24.8558L1.90562 25.515C2.01059 25.554 2.13136 25.4988 2.17047 25.3936ZM9.79654 19.8879C9.25984 19.5602 8.78932 19.1348 8.40932 18.6338C8.40232 18.6243 8.39264 18.6172 8.38154 18.6133C8.37044 18.6094 8.35842 18.6089 8.34704 18.6119C7.2575 18.8849 6.63718 19.0567 5.47846 19.1684C5.46722 19.1693 5.4565 19.1735 5.44756 19.1804C5.43862 19.1873 5.43184 19.1965 5.42804 19.2072L3.48147 24.4384C3.47636 24.4519 3.47635 24.4668 3.48144 24.4804C3.48653 24.4939 3.49637 24.5051 3.50913 24.5119L6.73105 26.2534L10.8593 29.367L10.9421 29.4482C11.5682 30.2122 12.48 29.7555 12.2531 29.138C12.0961 28.7107 12.6132 28.3339 12.9774 28.6521C13.4091 29.0295 13.7082 28.986 13.9738 28.8699C14.2479 28.75 14.4787 28.5434 14.2721 28.0351C14.2274 27.9248 14.2284 27.8012 14.2748 27.6915C14.3212 27.5819 14.4093 27.4952 14.5196 27.4505C15.0763 27.225 15.2806 28.164 15.813 28.0078C16.037 27.9421 16.4598 27.7343 16.2589 27.1685C16.1121 26.7538 16.6008 26.3781 16.9731 26.6777C17.3131 26.9562 17.6286 27.0593 17.8088 27.0519C18.0921 27.0404 18.4936 26.6832 18.523 26.4434C18.5346 26.3491 18.482 26.25 18.4135 26.1746L16.1036 23.5631C16.0971 23.5555 16.0887 23.5497 16.0793 23.5463C16.0699 23.5429 16.0598 23.5419 16.0499 23.5435C14.8223 23.7251 13.6141 23.5952 12.4362 23.2063C12.4276 23.2033 12.4184 23.2024 12.4094 23.2036C12.4003 23.2049 12.3917 23.2082 12.3842 23.2134L9.25098 25.3022C8.53568 25.7791 7.57629 25.629 7.03852 24.9569L6.98486 24.8898C6.72908 24.5721 6.5999 24.1709 6.62218 23.7636C6.64447 23.3563 6.81664 22.9716 7.10556 22.6837L9.80771 19.9815C9.81416 19.9751 9.81906 19.9673 9.82205 19.9587C9.82504 19.9502 9.82603 19.941 9.82495 19.932C9.82388 19.923 9.82076 19.9143 9.81583 19.9067C9.81091 19.899 9.80431 19.8926 9.79654 19.8879ZM16.4333 18.6341C15.1042 20.3827 12.8133 21.0557 10.764 20.3442C10.7534 20.3403 10.7419 20.3396 10.7309 20.3421C10.7199 20.3446 10.7099 20.3503 10.702 20.3584L7.74113 23.3192C7.08983 23.9705 7.9826 25.0674 8.75231 24.5543L12.0944 22.3262L12.0951 22.3272C12.1536 22.2882 12.2203 22.2635 12.2901 22.2551C12.3598 22.2467 12.4305 22.2548 12.4966 22.2788C13.7015 22.7151 14.912 22.8472 16.1717 22.6151C16.2475 22.6012 16.3257 22.6071 16.3986 22.6323C16.4715 22.6575 16.5367 22.7011 16.5878 22.7588L19.0843 25.5811C19.124 25.6261 19.1545 25.6846 19.2092 25.6551L21.3323 24.5119C21.3451 24.5051 21.355 24.4939 21.3601 24.4803C21.3652 24.4668 21.3652 24.4518 21.36 24.4383L19.4135 19.2071C19.4097 19.1965 19.4029 19.1872 19.3939 19.1803C19.385 19.1734 19.3743 19.1693 19.363 19.1683C18.1894 19.0554 17.6161 18.893 16.4956 18.6121C16.4842 18.6091 16.4722 18.6097 16.4611 18.6136C16.45 18.6175 16.4403 18.6246 16.4333 18.6341ZM11.635 2.56698L3.06744 11.1345C3.06178 11.14 3.0573 11.1466 3.05427 11.1539C3.05125 11.1611 3.04974 11.169 3.04985 11.1769V16.4311C3.04985 16.4976 3.12641 16.491 3.23186 16.5303L5.00353 17.1895C5.42487 17.3463 5.70006 17.7402 5.71965 18.1736C5.71999 18.1818 5.72204 18.1899 5.72568 18.1974C5.72931 18.2048 5.73446 18.2114 5.74078 18.2167C5.74711 18.2221 5.75447 18.2261 5.76241 18.2284C5.77035 18.2307 5.77869 18.2314 5.7869 18.2303C6.56972 18.1331 7.07652 18.0144 7.825 17.8209C7.83356 17.8188 7.84154 17.8147 7.84835 17.8091C7.85516 17.8035 7.86063 17.7964 7.86437 17.7884C7.86812 17.7804 7.87003 17.7717 7.86999 17.7628C7.86994 17.754 7.86793 17.7453 7.8641 17.7373C6.86706 15.6301 7.44828 13.0676 9.33443 11.605C10.433 10.7531 11.7735 10.4272 13.0528 10.589C16.4649 11.0206 18.4292 14.6585 16.9771 17.7373C16.9733 17.7452 16.9713 17.7539 16.9712 17.7628C16.9712 17.7716 16.9731 17.7803 16.9769 17.7883C16.9806 17.7963 16.9861 17.8033 16.9929 17.809C16.9997 17.8146 17.0076 17.8187 17.0162 17.8208C17.7658 18.0146 18.2707 18.133 19.0545 18.2303C19.0627 18.2314 19.0711 18.2307 19.079 18.2284C19.0869 18.226 19.0943 18.2221 19.1006 18.2167C19.107 18.2114 19.1121 18.2048 19.1157 18.1974C19.1194 18.1899 19.1214 18.1818 19.1218 18.1736C19.1414 17.7402 19.4166 17.3463 19.8379 17.1895C20.1196 17.0846 21.5761 16.5287 21.7452 16.4894C21.7584 16.4865 21.7702 16.4791 21.7787 16.4684C21.7871 16.4578 21.7916 16.4446 21.7915 16.4311V11.1769C21.7916 11.169 21.7901 11.1612 21.7871 11.1539C21.7841 11.1466 21.7796 11.14 21.774 11.1345L13.2065 2.56698C12.774 2.13439 12.0676 2.13439 11.635 2.56698ZM13.3526 8.21882C10.0861 7.80568 6.92589 9.59597 5.61164 12.6179C5.11393 13.7638 4.91192 15.0164 5.02415 16.2608C5.03633 16.3779 5.09414 16.4855 5.18505 16.5603C5.27597 16.6351 5.39268 16.671 5.50992 16.6604C5.62717 16.6498 5.73552 16.5935 5.81154 16.5036C5.88755 16.4137 5.92511 16.2975 5.91608 16.1801C5.54067 12.0251 9.10303 8.58402 13.2403 9.10731C16.3314 9.4983 18.7038 12.0191 18.933 15.0936C18.934 15.1061 18.931 15.1187 18.9245 15.1294C18.9179 15.1402 18.908 15.1485 18.8964 15.1533C18.8499 15.1729 18.8256 15.1347 18.8004 15.1057C18.7219 15.0168 18.6114 14.9625 18.493 14.9547C18.3746 14.9469 18.258 14.9862 18.1685 15.0641C18.079 15.142 18.024 15.2521 18.0154 15.3705C18.0068 15.4888 18.0454 15.6057 18.1227 15.6957L19.0158 16.7212C19.1886 16.9196 19.4786 16.9384 19.6978 16.7163L20.6436 15.7463C20.7265 15.6611 20.7721 15.5465 20.7705 15.4276C20.7689 15.3087 20.7201 15.1954 20.6349 15.1125C20.5496 15.0296 20.435 14.984 20.3161 14.9856C20.1973 14.9873 20.0839 15.036 20.001 15.1212L19.9382 15.1857C19.9301 15.194 19.9198 15.1998 19.9084 15.2023C19.8971 15.2049 19.8853 15.204 19.8744 15.2C19.8635 15.1959 19.8541 15.1888 19.8472 15.1794C19.8403 15.1701 19.8363 15.1589 19.8356 15.1473C19.628 11.5958 16.9124 8.66906 13.3526 8.21882ZM2.19261 10.7382C2.07301 10.8578 1.91417 10.9177 1.75491 10.9177V10.9195C1.67367 10.9196 1.5932 10.9037 1.51813 10.8726C1.44306 10.8416 1.37488 10.796 1.31752 10.7384C1.26015 10.6809 1.21474 10.6126 1.18389 10.5374C1.15304 10.4623 1.13736 10.3817 1.13776 10.3005H1.13597C1.13597 10.1424 1.19646 9.98359 1.31722 9.86282L10.3131 0.866976C11.4688 -0.288704 13.3488 -0.288222 14.5038 0.863804L23.5028 9.8395C23.6337 9.97027 23.7061 10.1175 23.706 10.3006C23.7055 10.8577 23.0304 11.1195 22.649 10.7382L13.8421 1.93141C13.0584 1.14769 11.783 1.14769 10.9993 1.93141L2.19261 10.7382Z" fill="#096D64"/>
</svg>
